<svg xmlns="http://www.w3.org/2000/svg" width="215" height="153" version="1.2" viewBox="0 0 215 153"><style>.s0{fill:#fff}</style><path id="Layer" fill-rule="evenodd" d="m100.5 1.4l12 0.1-0.2 2.9c-0.2 3.2 5.1 14.6 6.8 14.6 0.6 0 3.2-1.5 5.8-3.4 13.1-9.6 24.3-12.6 46.3-12.6 15.7 0 15.8 0 15.8 2.2 0 1.8-1.4 13.6-3 26.5 0 0.2-0.4 0.3-0.9 0.3-0.5 0-1.6-1.6-2.6-3.6-2.6-5.4-8-10.9-13.2-13.4-4.1-1.9-6-2.2-14.8-1.8-8.5 0.4-11 0.9-16.5 3.5-7.6 3.5-13 7.8-13 10.2 0 2 7.6 17 12.7 24.9 1.8 2.9 3.3 5.4 3.3 5.7 0 0.2 2.5 4.7 5.5 10 3 5.2 5.5 9.6 5.5 9.8 0 0.6 14.1 25.1 14.9 26 0.4 0.4 1.9-1 3.4-3.1 7.2-10.9 27.1-12.1 36-2.3 5.9 6.5 6.8 14.5 2.8 23.6-8.8 19.9-46.9 28.6-77.1 17.7-11.6-4.2-18.5-8.4-30.1-18.3-6.7-5.8-6.9-5.9-7.8-3.7-0.4 1.3-1.1 5.7-1.5 9.8-0.4 4.1-1.1 8.8-1.6 10.5-0.5 1.6-1.1 5-1.4 7.5-0.2 2.5-0.5 4.8-0.5 5.2-0.1 0.5-1.9 0.8-4.2 0.8-3.9 0-4-0.1-3.5-2.8 0.4-1.5 1.1-5.2 1.6-8.2 0.6-3 1.4-7.3 1.9-9.5 1.9-8.6 3.2-15.2 3.7-18.7 0.5-4.1-0.8-6.8-11.9-23.9-3.4-5.3-10.9-17.3-16.7-26.8-5.8-9.4-10.8-17.1-11.2-17.1-0.4 0-0.9 0.8-1.2 1.7-0.6 2.1-5.9 35.3-8.6 53.8-1 7.1-2.6 17.3-3.5 22.5-3 16.9-1 24.9 6.6 26.4 1.7 0.3 2.8 1 2.4 1.6-1 1.6-36.8 1.3-36.3-0.2 0.3-0.7 1.9-1.5 3.7-1.9 3.7-0.8 8.8-5.2 10.3-8.9 1.1-2.8 5.5-22.6 6.8-30.5 0.4-2.8 1.3-7.5 1.8-10.5 0.6-3 1.3-6.9 1.6-8.5 0.2-1.7 1.6-9.5 3-17.5 1.4-8 2.8-16.3 3.1-18.5 0.4-2.2 1.3-7.8 2.1-12.4 0.9-4.6 1.3-9.4 0.9-10.8-0.3-1.3-2.9-6.5-5.6-11.4-5.3-9.3-10.6-14.9-13.9-14.9-1.1 0-2-0.5-2-1 0-0.6 5.5-1 14.5-1h14.4l3.7 6.7c3.7 6.9 9.8 17.6 14.1 24.8 1.4 2.2 5.3 8.7 8.7 14.5 11.2 18.9 15.7 25.3 16.7 24.3 1.1-1.1 8.9-42.6 8.9-47.3 0-3.9-5.1-14-9.6-18.9-2.3-2.6-3-4.1-2.2-4.3 0.7-0.3 6.7-0.4 13.3-0.4zm4.3 39.6c-0.4 0-1 1.7-1.3 3.7-0.4 2.1-2 10.9-3.6 19.7-1.6 8.7-2.9 16.8-2.9 18 0 2.5 11.8 17.9 18.3 24 9.2 8.4 23.6 16.4 33.1 18.1 3.8 0.8 3.8 0.7 2.6-1.6-1.2-2.3-13.6-24.3-22.5-39.9-4.6-8-14.9-26.7-19.9-36.2-1.7-3.2-3.4-5.8-3.8-5.8zm69.4 57c-1.8 1.1-4 3.5-4.9 5.4-1.5 3.3-1.5 3.6 1 8.8 3.8 7.7 7.6 11.1 12.6 11.1 7.4 0 12.2-5.5 12.5-14.3 0.1-5.6-1.8-9.6-5.6-11.6-4-2.1-11.7-1.8-15.6 0.6z" class="s0"/></svg>